<svg xmlns="http://www.w3.org/2000/svg" width="1400" height="560" viewBox="0 0 1400 560">
<defs>
  <linearGradient id="bg" x1="0" y1="0" x2="1" y2="1">
    <stop offset="0" stop-color="#02030A"/><stop offset=".52" stop-color="#0B1026"/><stop offset="1" stop-color="#171044"/>
  </linearGradient>
  <radialGradient id="neb" cx=".5" cy=".45" r=".65">
    <stop offset="0" stop-color="#7C3AED" stop-opacity=".34"/><stop offset=".55" stop-color="#312E81" stop-opacity=".14"/><stop offset="1" stop-color="#02030A" stop-opacity="0"/>
  </radialGradient>
  <linearGradient id="line" x1="0" x2="1">
    <stop stop-color="#22D3EE" stop-opacity=".05"/><stop offset=".5" stop-color="#22D3EE" stop-opacity=".8"/><stop offset="1" stop-color="#7C3AED" stop-opacity=".05"/>
  </linearGradient>
  <filter id="glow"><feGaussianBlur stdDeviation="4" result="b"/><feMerge><feMergeNode in="b"/><feMergeNode in="SourceGraphic"/></feMerge></filter>
</defs>
<rect width="1400" height="560" rx="28" fill="url(#bg)"/>
<rect width="1400" height="560" rx="28" fill="url(#neb)"/>
<circle cx="1208" cy="217" r="0.9" fill="#FFFFFF" opacity="0.75"/><circle cx="117" cy="533" r="0.7" fill="#FFFFFF" opacity="0.4"/><circle cx="608" cy="515" r="0.7" fill="#FFFFFF" opacity="0.55"/><circle cx="914" cy="90" r="0.9" fill="#FFFFFF" opacity="0.4"/><circle cx="347" cy="108" r="1.1" fill="#FFFFFF" opacity="0.55"/><circle cx="410" cy="501" r="0.9" fill="#FFFFFF" opacity="0.4"/><circle cx="1323" cy="431" r="1.1" fill="#FFFFFF" opacity="0.4"/><circle cx="146" cy="458" r="1.1" fill="#FFFFFF" opacity="0.55"/><circle cx="451" cy="131" r="0.9" fill="#FFFFFF" opacity="0.55"/><circle cx="826" cy="406" r="0.7" fill="#FFFFFF" opacity="0.75"/><circle cx="175" cy="432" r="1.1" fill="#FFFFFF" opacity="0.25"/><circle cx="968" cy="239" r="0.5" fill="#FFFFFF" opacity="0.55"/><circle cx="62" cy="397" r="0.9" fill="#FFFFFF" opacity="0.25"/><circle cx="554" cy="175" r="0.5" fill="#FFFFFF" opacity="0.75"/><circle cx="388" cy="302" r="0.5" fill="#FFFFFF" opacity="0.4"/><circle cx="846" cy="389" r="1.1" fill="#FFFFFF" opacity="0.4"/><circle cx="1038" cy="540" r="0.9" fill="#FFFFFF" opacity="0.4"/><circle cx="1104" cy="24" r="0.5" fill="#FFFFFF" opacity="0.25"/><circle cx="83" cy="372" r="1.1" fill="#FFFFFF" opacity="0.25"/><circle cx="1267" cy="489" r="0.7" fill="#FFFFFF" opacity="0.4"/><circle cx="429" cy="475" r="0.7" fill="#FFFFFF" opacity="0.25"/><circle cx="325" cy="337" r="0.9" fill="#FFFFFF" opacity="0.75"/><circle cx="156" cy="79" r="0.9" fill="#FFFFFF" opacity="0.75"/><circle cx="135" cy="215" r="0.9" fill="#FFFFFF" opacity="0.55"/><circle cx="203" cy="304" r="0.7" fill="#FFFFFF" opacity="0.55"/><circle cx="972" cy="227" r="1.1" fill="#FFFFFF" opacity="0.25"/><circle cx="1091" cy="344" r="0.7" fill="#FFFFFF" opacity="0.25"/><circle cx="592" cy="198" r="0.5" fill="#FFFFFF" opacity="0.25"/><circle cx="1314" cy="422" r="1.1" fill="#FFFFFF" opacity="0.25"/><circle cx="707" cy="262" r="0.9" fill="#FFFFFF" opacity="0.75"/><circle cx="1370" cy="218" r="0.9" fill="#FFFFFF" opacity="0.55"/><circle cx="55" cy="154" r="0.9" fill="#FFFFFF" opacity="0.55"/><circle cx="764" cy="430" r="1.1" fill="#FFFFFF" opacity="0.25"/><circle cx="469" cy="85" r="0.7" fill="#FFFFFF" opacity="0.4"/><circle cx="1379" cy="141" r="0.7" fill="#FFFFFF" opacity="0.55"/><circle cx="266" cy="396" r="0.5" fill="#FFFFFF" opacity="0.75"/><circle cx="1380" cy="225" r="0.9" fill="#FFFFFF" opacity="0.4"/><circle cx="279" cy="487" r="0.9" fill="#FFFFFF" opacity="0.55"/><circle cx="634" cy="279" r="0.7" fill="#FFFFFF" opacity="0.75"/><circle cx="434" cy="483" r="0.9" fill="#FFFFFF" opacity="0.25"/><circle cx="521" cy="68" r="0.9" fill="#FFFFFF" opacity="0.75"/><circle cx="916" cy="70" r="0.9" fill="#FFFFFF" opacity="0.4"/><circle cx="86" cy="494" r="0.5" fill="#FFFFFF" opacity="0.25"/><circle cx="861" cy="480" r="0.9" fill="#FFFFFF" opacity="0.4"/><circle cx="1016" cy="81" r="0.5" fill="#FFFFFF" opacity="0.55"/><circle cx="1255" cy="142" r="0.5" fill="#FFFFFF" opacity="0.75"/><circle cx="712" cy="92" r="0.7" fill="#FFFFFF" opacity="0.75"/><circle cx="872" cy="129" r="0.9" fill="#FFFFFF" opacity="0.25"/><circle cx="506" cy="383" r="0.7" fill="#FFFFFF" opacity="0.25"/><circle cx="493" cy="214" r="0.7" fill="#FFFFFF" opacity="0.4"/><circle cx="1220" cy="214" r="1.1" fill="#FFFFFF" opacity="0.4"/><circle cx="95" cy="211" r="0.7" fill="#FFFFFF" opacity="0.25"/><circle cx="1231" cy="30" r="0.9" fill="#FFFFFF" opacity="0.4"/><circle cx="1199" cy="510" r="0.7" fill="#FFFFFF" opacity="0.25"/><circle cx="244" cy="59" r="1.1" fill="#FFFFFF" opacity="0.25"/><circle cx="581" cy="430" r="0.7" fill="#FFFFFF" opacity="0.25"/><circle cx="256" cy="313" r="0.5" fill="#FFFFFF" opacity="0.25"/><circle cx="626" cy="313" r="0.7" fill="#FFFFFF" opacity="0.4"/><circle cx="813" cy="406" r="0.7" fill="#FFFFFF" opacity="0.55"/><circle cx="84" cy="263" r="0.9" fill="#FFFFFF" opacity="0.75"/><circle cx="512" cy="498" r="0.7" fill="#FFFFFF" opacity="0.4"/><circle cx="853" cy="172" r="0.7" fill="#FFFFFF" opacity="0.75"/><circle cx="917" cy="516" r="0.7" fill="#FFFFFF" opacity="0.55"/><circle cx="73" cy="213" r="0.9" fill="#FFFFFF" opacity="0.25"/><circle cx="476" cy="337" r="0.9" fill="#FFFFFF" opacity="0.25"/><circle cx="786" cy="149" r="0.9" fill="#FFFFFF" opacity="0.55"/><circle cx="956" cy="288" r="0.5" fill="#FFFFFF" opacity="0.75"/><circle cx="636" cy="111" r="0.7" fill="#FFFFFF" opacity="0.25"/><circle cx="778" cy="511" r="0.5" fill="#FFFFFF" opacity="0.75"/><circle cx="107" cy="380" r="0.5" fill="#FFFFFF" opacity="0.4"/><circle cx="23" cy="407" r="0.7" fill="#FFFFFF" opacity="0.75"/><circle cx="819" cy="124" r="0.7" fill="#FFFFFF" opacity="0.75"/><circle cx="1371" cy="466" r="0.9" fill="#FFFFFF" opacity="0.55"/><circle cx="457" cy="309" r="1.1" fill="#FFFFFF" opacity="0.4"/><circle cx="354" cy="517" r="0.9" fill="#FFFFFF" opacity="0.4"/><circle cx="879" cy="65" r="0.5" fill="#FFFFFF" opacity="0.25"/><circle cx="39" cy="519" r="0.9" fill="#FFFFFF" opacity="0.75"/><circle cx="1299" cy="399" r="0.9" fill="#FFFFFF" opacity="0.4"/><circle cx="765" cy="509" r="0.7" fill="#FFFFFF" opacity="0.4"/><circle cx="924" cy="83" r="1.1" fill="#FFFFFF" opacity="0.25"/><circle cx="1290" cy="511" r="0.5" fill="#FFFFFF" opacity="0.25"/><circle cx="947" cy="296" r="0.9" fill="#FFFFFF" opacity="0.75"/><circle cx="355" cy="96" r="0.7" fill="#FFFFFF" opacity="0.75"/><circle cx="875" cy="195" r="0.5" fill="#FFFFFF" opacity="0.55"/><circle cx="1214" cy="123" r="0.5" fill="#FFFFFF" opacity="0.4"/><circle cx="540" cy="180" r="0.7" fill="#FFFFFF" opacity="0.55"/><circle cx="1101" cy="270" r="0.5" fill="#FFFFFF" opacity="0.4"/><circle cx="305" cy="70" r="0.7" fill="#FFFFFF" opacity="0.75"/><circle cx="262" cy="168" r="1.1" fill="#FFFFFF" opacity="0.75"/><circle cx="642" cy="206" r="0.7" fill="#FFFFFF" opacity="0.4"/><circle cx="342" cy="529" r="1.1" fill="#FFFFFF" opacity="0.75"/><circle cx="139" cy="193" r="0.9" fill="#FFFFFF" opacity="0.25"/><circle cx="1184" cy="274" r="0.7" fill="#FFFFFF" opacity="0.25"/><circle cx="32" cy="347" r="0.5" fill="#FFFFFF" opacity="0.4"/><circle cx="564" cy="253" r="0.7" fill="#FFFFFF" opacity="0.75"/><circle cx="521" cy="221" r="0.9" fill="#FFFFFF" opacity="0.4"/><circle cx="1207" cy="360" r="0.9" fill="#FFFFFF" opacity="0.75"/><circle cx="671" cy="249" r="0.9" fill="#FFFFFF" opacity="0.55"/><circle cx="603" cy="450" r="0.7" fill="#FFFFFF" opacity="0.4"/><circle cx="40" cy="404" r="0.5" fill="#FFFFFF" opacity="0.75"/><circle cx="387" cy="274" r="0.7" fill="#FFFFFF" opacity="0.75"/><circle cx="1028" cy="232" r="0.7" fill="#FFFFFF" opacity="0.25"/><circle cx="182" cy="442" r="1.1" fill="#FFFFFF" opacity="0.25"/><circle cx="638" cy="197" r="0.7" fill="#FFFFFF" opacity="0.75"/><circle cx="142" cy="380" r="0.5" fill="#FFFFFF" opacity="0.4"/><circle cx="437" cy="333" r="0.5" fill="#FFFFFF" opacity="0.4"/><circle cx="127" cy="413" r="0.9" fill="#FFFFFF" opacity="0.4"/><circle cx="1331" cy="513" r="0.7" fill="#FFFFFF" opacity="0.4"/><circle cx="760" cy="194" r="0.5" fill="#FFFFFF" opacity="0.75"/><circle cx="970" cy="259" r="0.9" fill="#FFFFFF" opacity="0.75"/><circle cx="674" cy="88" r="1.1" fill="#FFFFFF" opacity="0.75"/><circle cx="744" cy="57" r="0.9" fill="#FFFFFF" opacity="0.75"/><circle cx="98" cy="92" r="0.9" fill="#FFFFFF" opacity="0.55"/><circle cx="1188" cy="353" r="0.5" fill="#FFFFFF" opacity="0.25"/><circle cx="185" cy="497" r="1.1" fill="#FFFFFF" opacity="0.55"/><circle cx="474" cy="299" r="0.7" fill="#FFFFFF" opacity="0.4"/><circle cx="1116" cy="225" r="0.7" fill="#FFFFFF" opacity="0.55"/><circle cx="566" cy="123" r="0.7" fill="#FFFFFF" opacity="0.55"/><circle cx="1280" cy="46" r="0.7" fill="#FFFFFF" opacity="0.75"/><circle cx="659" cy="307" r="0.9" fill="#FFFFFF" opacity="0.55"/><circle cx="316" cy="443" r="0.7" fill="#FFFFFF" opacity="0.75"/><circle cx="143" cy="42" r="0.9" fill="#FFFFFF" opacity="0.55"/><circle cx="418" cy="258" r="0.9" fill="#FFFFFF" opacity="0.4"/><circle cx="170" cy="334" r="0.5" fill="#FFFFFF" opacity="0.55"/><circle cx="1121" cy="297" r="0.7" fill="#FFFFFF" opacity="0.55"/><circle cx="55" cy="244" r="0.7" fill="#FFFFFF" opacity="0.25"/><circle cx="1100" cy="24" r="0.9" fill="#FFFFFF" opacity="0.75"/><circle cx="186" cy="489" r="0.9" fill="#FFFFFF" opacity="0.25"/><circle cx="838" cy="409" r="1.1" fill="#FFFFFF" opacity="0.55"/><circle cx="868" cy="89" r="0.5" fill="#FFFFFF" opacity="0.55"/><circle cx="646" cy="498" r="0.5" fill="#FFFFFF" opacity="0.75"/><circle cx="425" cy="175" r="0.5" fill="#FFFFFF" opacity="0.4"/><circle cx="1018" cy="181" r="0.5" fill="#FFFFFF" opacity="0.25"/><circle cx="1084" cy="182" r="0.9" fill="#FFFFFF" opacity="0.4"/><circle cx="797" cy="492" r="0.5" fill="#FFFFFF" opacity="0.4"/><circle cx="599" cy="361" r="0.7" fill="#FFFFFF" opacity="0.25"/><circle cx="426" cy="302" r="0.5" fill="#FFFFFF" opacity="0.4"/><circle cx="733" cy="75" r="1.1" fill="#FFFFFF" opacity="0.25"/><circle cx="364" cy="449" r="0.5" fill="#FFFFFF" opacity="0.4"/><circle cx="284" cy="216" r="1.1" fill="#FFFFFF" opacity="0.25"/><circle cx="816" cy="172" r="1.1" fill="#FFFFFF" opacity="0.4"/><circle cx="796" cy="356" r="0.5" fill="#FFFFFF" opacity="0.25"/><circle cx="1070" cy="47" r="1.1" fill="#FFFFFF" opacity="0.4"/><circle cx="1115" cy="488" r="0.7" fill="#FFFFFF" opacity="0.55"/><circle cx="1095" cy="484" r="0.5" fill="#FFFFFF" opacity="0.4"/><circle cx="234" cy="479" r="0.7" fill="#FFFFFF" opacity="0.4"/><circle cx="477" cy="75" r="0.5" fill="#FFFFFF" opacity="0.4"/><circle cx="653" cy="226" r="0.9" fill="#FFFFFF" opacity="0.4"/><circle cx="1006" cy="102" r="0.5" fill="#FFFFFF" opacity="0.25"/><circle cx="1307" cy="236" r="0.7" fill="#FFFFFF" opacity="0.75"/><circle cx="1159" cy="476" r="0.5" fill="#FFFFFF" opacity="0.55"/><circle cx="151" cy="266" r="0.9" fill="#FFFFFF" opacity="0.55"/><circle cx="382" cy="70" r="1.1" fill="#FFFFFF" opacity="0.4"/><circle cx="578" cy="94" r="0.5" fill="#FFFFFF" opacity="0.25"/><circle cx="265" cy="87" r="0.5" fill="#FFFFFF" opacity="0.4"/><circle cx="1302" cy="423" r="0.9" fill="#FFFFFF" opacity="0.25"/><circle cx="1301" cy="80" r="0.7" fill="#FFFFFF" opacity="0.25"/><circle cx="1034" cy="465" r="0.9" fill="#FFFFFF" opacity="0.25"/><circle cx="1019" cy="355" r="0.7" fill="#FFFFFF" opacity="0.55"/><circle cx="918" cy="261" r="0.9" fill="#FFFFFF" opacity="0.4"/><circle cx="391" cy="473" r="1.1" fill="#FFFFFF" opacity="0.55"/><circle cx="1374" cy="55" r="0.7" fill="#FFFFFF" opacity="0.4"/><circle cx="95" cy="204" r="1.1" fill="#FFFFFF" opacity="0.75"/><circle cx="688" cy="314" r="0.5" fill="#FFFFFF" opacity="0.75"/><circle cx="592" cy="381" r="0.9" fill="#FFFFFF" opacity="0.55"/><circle cx="881" cy="268" r="1.1" fill="#FFFFFF" opacity="0.55"/><circle cx="440" cy="364" r="0.5" fill="#FFFFFF" opacity="0.4"/><circle cx="672" cy="255" r="0.5" fill="#FFFFFF" opacity="0.75"/><circle cx="1235" cy="531" r="1.1" fill="#FFFFFF" opacity="0.4"/><circle cx="1345" cy="360" r="0.9" fill="#FFFFFF" opacity="0.4"/><circle cx="1093" cy="54" r="0.5" fill="#FFFFFF" opacity="0.55"/><circle cx="464" cy="451" r="0.5" fill="#FFFFFF" opacity="0.55"/><circle cx="383" cy="491" r="0.5" fill="#FFFFFF" opacity="0.55"/><circle cx="302" cy="422" r="0.9" fill="#FFFFFF" opacity="0.25"/><circle cx="1143" cy="126" r="0.9" fill="#FFFFFF" opacity="0.4"/><circle cx="1191" cy="22" r="0.7" fill="#FFFFFF" opacity="0.75"/><circle cx="180" cy="270" r="0.5" fill="#FFFFFF" opacity="0.55"/><circle cx="560" cy="289" r="1.1" fill="#FFFFFF" opacity="0.25"/><circle cx="480" cy="520" r="1.1" fill="#FFFFFF" opacity="0.75"/><circle cx="322" cy="218" r="0.9" fill="#FFFFFF" opacity="0.75"/><circle cx="1326" cy="367" r="0.7" fill="#FFFFFF" opacity="0.75"/><circle cx="1016" cy="134" r="0.7" fill="#FFFFFF" opacity="0.55"/><circle cx="791" cy="538" r="1.1" fill="#FFFFFF" opacity="0.25"/><circle cx="71" cy="299" r="1.1" fill="#FFFFFF" opacity="0.75"/><circle cx="669" cy="396" r="1.1" fill="#FFFFFF" opacity="0.4"/><circle cx="674" cy="153" r="0.5" fill="#FFFFFF" opacity="0.55"/><circle cx="327" cy="446" r="1.1" fill="#FFFFFF" opacity="0.55"/><circle cx="645" cy="139" r="0.5" fill="#FFFFFF" opacity="0.75"/><circle cx="143" cy="256" r="0.9" fill="#FFFFFF" opacity="0.55"/><circle cx="1282" cy="249" r="1.1" fill="#FFFFFF" opacity="0.55"/><circle cx="566" cy="346" r="1.1" fill="#FFFFFF" opacity="0.55"/><circle cx="1131" cy="493" r="0.5" fill="#FFFFFF" opacity="0.55"/><circle cx="1108" cy="403" r="0.7" fill="#FFFFFF" opacity="0.75"/><circle cx="600" cy="393" r="0.7" fill="#FFFFFF" opacity="0.75"/><circle cx="1033" cy="344" r="1.1" fill="#FFFFFF" opacity="0.75"/><circle cx="179" cy="137" r="0.5" fill="#FFFFFF" opacity="0.25"/><circle cx="215" cy="247" r="1.1" fill="#FFFFFF" opacity="0.4"/><circle cx="683" cy="221" r="0.5" fill="#FFFFFF" opacity="0.25"/><circle cx="473" cy="77" r="0.7" fill="#FFFFFF" opacity="0.55"/><circle cx="1033" cy="276" r="0.9" fill="#FFFFFF" opacity="0.75"/><circle cx="167" cy="386" r="0.5" fill="#FFFFFF" opacity="0.4"/><circle cx="1190" cy="65" r="1.1" fill="#FFFFFF" opacity="0.4"/><circle cx="1322" cy="87" r="1.1" fill="#FFFFFF" opacity="0.75"/><circle cx="845" cy="156" r="0.5" fill="#FFFFFF" opacity="0.4"/><circle cx="1268" cy="192" r="0.5" fill="#FFFFFF" opacity="0.4"/><circle cx="1122" cy="332" r="0.7" fill="#FFFFFF" opacity="0.55"/><circle cx="877" cy="257" r="0.7" fill="#FFFFFF" opacity="0.25"/><circle cx="858" cy="244" r="1.1" fill="#FFFFFF" opacity="0.4"/><circle cx="998" cy="485" r="0.9" fill="#FFFFFF" opacity="0.55"/><circle cx="629" cy="188" r="0.9" fill="#FFFFFF" opacity="0.55"/><ellipse cx="700" cy="280" rx="330" ry="105" fill="none" stroke="#7C3AED" stroke-width="2" opacity=".5" transform="rotate(-12 700 280)"/>
<ellipse cx="700" cy="280" rx="390" ry="135" fill="none" stroke="#22D3EE" stroke-width="1" opacity=".25" transform="rotate(18 700 280)"/>
<circle cx="940" cy="325" r="54" fill="#0B1026" stroke="#7C3AED" stroke-width="2" opacity=".9"/>
<circle cx="925" cy="308" r="7" fill="#8B5CF6" opacity=".5"/>
<path d="M1030 145 l42 18 -31 24 -32 -18 z" fill="#FFFFFF" opacity=".9"/>
<path d="M1010 182 l-34 18 26 8 z" fill="#22D3EE" opacity=".8"/>
<path d="M1034 188 l30 20 -28 1 z" fill="#7C3AED" opacity=".8"/>
<text x="700" y="255" text-anchor="middle" fill="#FFFFFF" font-family="monospace" font-size="58" font-weight="700" letter-spacing="8">ABDUL MOIZ</text>
<text x="700" y="312" text-anchor="middle" fill="#22D3EE" font-family="monospace" font-size="34" font-weight="700" letter-spacing="5">MOIZ.EXE</text>
<text x="700" y="355" text-anchor="middle" fill="#CBD5E1" font-family="monospace" font-size="13" letter-spacing="2">PYTHON • MACHINE LEARNING • AI • FULL-STACK • DIGITAL BUILDING</text>
<text x="60" y="70" fill="#22D3EE" font-family="monospace" font-size="11" letter-spacing="3">MOIZ.EXE // ORBITAL OS</text>
<text x="60" y="495" fill="#8B5CF6" font-family="monospace" font-size="10" letter-spacing="2">SYSTEM ONLINE</text>
<text x="270" y="495" fill="#22D3EE" font-family="monospace" font-size="10" letter-spacing="2">BUILD VECTOR: ACTIVE</text>
<text x="575" y="495" fill="#8B5CF6" font-family="monospace" font-size="10" letter-spacing="2">SIGNAL LOCKED</text>
<text x="1060" y="495" fill="#64748B" font-family="monospace" font-size="10">X: 33.6844 / Y: 73.0479</text></svg>